HIERARCHY
ROOT hip
{
  OFFSET 0 0 0
  CHANNELS 6 Xposition Yposition Zposition Zrotation Yrotation Xrotation
  JOINT abdomen
  {
    OFFSET 0 20.6881 -0.73152
    CHANNELS 3 Zrotation Xrotation Yrotation
    JOINT chest
    {
      OFFSET 0 11.7043 -0.48768
      CHANNELS 3 Zrotation Xrotation Yrotation
      JOINT neck
      {
        OFFSET 0 22.1894 -2.19456
        CHANNELS 3 Zrotation Xrotation Yrotation
        JOINT head
        {
          OFFSET -0.24384 7.07133 1.2192
          CHANNELS 3 Zrotation Xrotation Yrotation
          JOINT leftEye
          {
            OFFSET 4.14528 8.04674 8.04672
            CHANNELS 3 Zrotation Xrotation Yrotation
            End Site
            {
              OFFSET 1 0 0
            }
          }
          JOINT rightEye
          {
            OFFSET -3.6576 8.04674 8.04672
            CHANNELS 3 Zrotation Xrotation Yrotation
            End Site
            {
              OFFSET 1 0 0
            }
          }
        }
      }
      JOINT rCollar
      {
        OFFSET -2.68224 19.2634 -4.8768
        CHANNELS 3 Zrotation Xrotation Yrotation
        JOINT rShldr
        {
          OFFSET -8.77824 -1.95073 1.46304
          CHANNELS 3 Zrotation Xrotation Yrotation
          JOINT rForeArm
          {
            OFFSET -28.1742 -1.7115 0.48768
            CHANNELS 3 Zrotation Xrotation Yrotation
            JOINT rHand
            {
              OFFSET -22.5879 0.773209 7.07136
              CHANNELS 3 Zrotation Xrotation Yrotation
              JOINT rThumb1
              {
                OFFSET -1.2192 -0.487915 3.41376
                CHANNELS 3 Zrotation Xrotation Yrotation
                JOINT rThumb2
                {
                  OFFSET -3.37035 -0.52449 3.41376
                  CHANNELS 3 Zrotation Xrotation Yrotation
                  End Site
                  {
                    OFFSET -1.78271 -1.18214 1.43049
                  }
                }
              }
              JOINT rIndex1
              {
                OFFSET -7.75947 0.938293 5.60832
                CHANNELS 3 Zrotation Xrotation Yrotation
                JOINT rIndex2
                {
                  OFFSET -2.54057 -0.884171 1.56538
                  CHANNELS 3 Zrotation Xrotation Yrotation
                  End Site
                  {
                    OFFSET -1.62519 -0.234802 1.16502
                  }
                }
              }
              JOINT rMid1
              {
                OFFSET -8.24714 1.18213 3.41376
                CHANNELS 3 Zrotation Xrotation Yrotation
                JOINT rMid2
                {
                  OFFSET -3.10165 -0.590103 1.0647
                  CHANNELS 3 Zrotation Xrotation Yrotation
                  End Site
                  {
                    OFFSET -2.48547 -0.328903 0.83742
                  }
                }
              }
              JOINT rRing1
              {
                OFFSET -8.82822 0.546677 1.51678
                CHANNELS 3 Zrotation Xrotation Yrotation
                JOINT rRing2
                {
                  OFFSET -2.60934 -0.819778 -0.0198488
                  CHANNELS 3 Zrotation Xrotation Yrotation
                  End Site
                  {
                    OFFSET -2.33842 -0.294052 0.168128
                  }
                }
              }
              JOINT rPinky1
              {
                OFFSET -8.27202 -0.0477905 -0.4584
                CHANNELS 3 Zrotation Xrotation Yrotation
                JOINT rPinky2
                {
                  OFFSET -1.82734 -0.647385 -0.700984
                  CHANNELS 3 Zrotation Xrotation Yrotation
                  End Site
                  {
                    OFFSET -1.69225 -0.51767 -0.607171
                  }
                }
              }
            }
          }
        }
      }
      JOINT lCollar
      {
        OFFSET 2.68224 19.2634 -4.8768
        CHANNELS 3 Zrotation Xrotation Yrotation
        JOINT lShldr
        {
          OFFSET 8.77824 -1.95073 1.46304
          CHANNELS 3 Zrotation Xrotation Yrotation
          JOINT lForeArm
          {
            OFFSET 28.1742 -1.7115 0.48768
            CHANNELS 3 Zrotation Xrotation Yrotation
            JOINT lHand
            {
              OFFSET 22.5879 0.773209 7.07136
              CHANNELS 3 Zrotation Xrotation Yrotation
              JOINT lThumb1
              {
                OFFSET 1.2192 -0.487915 3.41376
                CHANNELS 3 Zrotation Xrotation Yrotation
                JOINT lThumb2
                {
                  OFFSET 3.37035 -0.52449 3.41376
                  CHANNELS 3 Zrotation Xrotation Yrotation
                  End Site
                  {
                    OFFSET 1.78271 -1.18214 1.43049
                  }
                }
              }
              JOINT lIndex1
              {
                OFFSET 7.75947 0.938293 5.60832
                CHANNELS 3 Zrotation Xrotation Yrotation
                JOINT lIndex2
                {
                  OFFSET 2.54057 -0.884171 1.56538
                  CHANNELS 3 Zrotation Xrotation Yrotation
                  End Site
                  {
                    OFFSET 1.62519 -0.234802 1.16502
                  }
                }
              }
              JOINT lMid1
              {
                OFFSET 8.24714 1.18213 3.41376
                CHANNELS 3 Zrotation Xrotation Yrotation
                JOINT lMid2
                {
                  OFFSET 3.10165 -0.590103 1.0647
                  CHANNELS 3 Zrotation Xrotation Yrotation
                  End Site
                  {
                    OFFSET 2.48547 -0.328903 0.83742
                  }
                }
              }
              JOINT lRing1
              {
                OFFSET 8.82822 0.546677 1.51678
                CHANNELS 3 Zrotation Xrotation Yrotation
                JOINT lRing2
                {
                  OFFSET 2.60934 -0.819778 -0.0198488
                  CHANNELS 3 Zrotation Xrotation Yrotation
                  End Site
                  {
                    OFFSET 2.33842 -0.294052 0.168128
                  }
                }
              }
              JOINT lPinky1
              {
                OFFSET 8.27202 -0.0477905 -0.4584
                CHANNELS 3 Zrotation Xrotation Yrotation
                JOINT lPinky2
                {
                  OFFSET 1.82734 -0.647385 -0.700984
                  CHANNELS 3 Zrotation Xrotation Yrotation
                  End Site
                  {
                    OFFSET 1.69225 -0.51767 -0.607171
                  }
                }
              }
            }
          }
        }
      }
    }
  }
  JOINT rButtock
  {
    OFFSET -8.77824 4.35084 1.2192
    CHANNELS 3 Zrotation Xrotation Yrotation
    JOINT rThigh
    {
      OFFSET 0 -1.70687 -2.19456
      CHANNELS 3 Zrotation Xrotation Yrotation
      JOINT rShin
      {
        OFFSET 0 -36.8199 0.73152
        CHANNELS 3 Zrotation Xrotation Yrotation
        JOINT rFoot
        {
          OFFSET 0.73152 -45.1104 -5.12064
          CHANNELS 3 Zrotation Xrotation Yrotation
          End Site
          {
            OFFSET -1.1221 -3.69964 12.103
          }
        }
      }
    }
  }
  JOINT lButtock
  {
    OFFSET 8.77824 4.35084 1.2192
    CHANNELS 3 Zrotation Xrotation Yrotation
    JOINT lThigh
    {
      OFFSET 0 -1.70687 -2.19456
      CHANNELS 3 Zrotation Xrotation Yrotation
      JOINT lShin
      {
        OFFSET 0 -36.8199 0.73152
        CHANNELS 3 Zrotation Xrotation Yrotation
        JOINT lFoot
        {
          OFFSET -0.73152 -45.1104 -5.12064
          CHANNELS 3 Zrotation Xrotation Yrotation
          End Site
          {
            OFFSET 1.1221 -3.69964 12.103
          }
        }
      }
    }
  }
}
MOTION
Frames:	4
Frame Time:	0.03333
0.1332641812041402 11.650186032056808 1.2955958023667336 -0.9035321474075317 -1.1190521717071533 0.36228707432746887 0.29689300060272217 3.5439157485961914 1.7857106924057007 0.2672293782234192 -1.7291407585144043 0.32053348422050476 -1.0421013832092285 3.6299052238464355 -0.619326651096344 2.853074789047241 -4.445046424865723 -1.8622345924377441 0.23214523494243622 -0.871159017086029 -0.6321306824684143 -0.43747052550315857 0.4958205223083496 -0.9805850982666016 -0.10378498584032059 0.1444970965385437 0.15278424322605133 7.8824615478515625 4.347304821014404 3.8308684825897217 -6.196050643920898 -2.203240156173706 6.357205867767334 1.0893572568893433 -2.0692005157470703 -0.2539049983024597 -0.3603035509586334 0.7561035752296448 -0.9624421000480652 -0.7284217476844788 -0.055838845670223236 0.538396418094635 -0.42269229888916016 0.8982752561569214 -0.027490902692079544 2.0708730220794678 2.713900566101074 -0.043176718056201935 0.5300739407539368 -0.9878142476081848 -0.06093606352806091 2.0493876934051514 -0.24430112540721893 0.3581256866455078 0.04376334697008133 -0.6298710107803345 0.04770733043551445 3.0422871112823486 -0.019198274239897728 0.9294988512992859 -0.7001453638076782 0.5437228083610535 -0.5056741237640381 0.36494114995002747 -0.81056147813797 0.12834009528160095 -0.2739342749118805 0.8281452059745789 0.5373637080192566 -8.638659477233887 4.153404712677002 -4.906035423278809 4.481327533721924 -2.0281670093536377 -7.075585842132568 -0.38519173860549927 -1.775960922241211 -0.15092821419239044 -0.12348299473524094 0.6415179371833801 0.43839365243911743 0.48309797048568726 0.49245694279670715 0.4963892102241516 -0.05233645439147949 0.27133357524871826 -0.09762560576200485 -2.249652862548828 0.8544026613235474 -0.5650091767311096 1.153093695640564 -0.22966229915618896 0.9862757325172424 -1.124291181564331 0.4641980826854706 -0.15599344670772552 -0.09678976237773895 -0.24196909368038177 0.9274652600288391 -1.2332947254180908 0.6896432638168335 -0.560156524181366 0.7524778246879578 -0.16679240763187408 -0.7715255618095398 -1.717725396156311 0.2737647593021393 -1.02460777759552 -0.3866075575351715 0.7716705203056335 -0.06217165291309357 -2.1129376888275146 -5.844590663909912 -3.060408592224121 -0.6458097696304321 7.502151966094971 -0.4069397747516632 -1.9315251111984253 -2.020037889480591 -3.3836770057678223 -0.7409641146659851 -0.3797796070575714 -0.5055287480354309 3.254666328430176 -4.097082138061523 3.1788833141326904 -0.5154045224189758 6.801469326019287 -0.48089298605918884 2.667389392852783 -3.6417922973632812 1.9348608255386353
0.029234844259917736 24.61320161819458 2.0584292709827423 -1.8792908191680908 -1.1797477006912231 1.6416994333267212 -0.3899843692779541 6.14277458190918 1.9550105333328247 1.2328219413757324 -3.887923240661621 0.3764362633228302 -2.683600425720215 6.962992191314697 -1.9692121744155884 4.766026973724365 -8.939374923706055 -3.1351161003112793 0.36487212777137756 -0.6632503867149353 -0.25981488823890686 -0.044177014380693436 0.2632697820663452 -0.804714560508728 -0.19771571457386017 0.12899520993232727 0.13948123157024384 17.087814331054688 10.855501174926758 7.624436378479004 -12.147330284118652 -5.73836088180542 16.549753189086914 0.7657776474952698 -4.050698757171631 -0.8407530784606934 -0.11551430076360703 0.41410455107688904 -0.5963992476463318 -0.31738990545272827 0.281254380941391 0.28516462445259094 -0.1498960703611374 0.34679535031318665 -0.40162187814712524 4.023688793182373 3.692753553390503 0.20048241317272186 0.30580413341522217 -0.7359010577201843 0.052082277834415436 2.444228410720825 0.39555078744888306 0.34532904624938965 -0.2644508183002472 -0.2106531262397766 0.4232497811317444 5.218318462371826 0.4287114143371582 0.6539098024368286 -0.2985694706439972 0.3031328022480011 -0.4418849050998688 1.1085494756698608 -0.6097108721733093 0.00020491269242484123 -0.07964517921209335 0.5922292470932007 0.5077378749847412 -18.72838020324707 9.469326972961426 -11.469245910644531 10.21872615814209 -5.056300163269043 -16.555400848388672 -0.13928714394569397 -2.2186450958251953 0.25363093614578247 0.04013878107070923 0.25061315298080444 0.07433856278657913 0.27410027384757996 0.12585985660552979 0.16944098472595215 -0.07985874265432358 0.15508393943309784 0.010516734793782234 -4.033833026885986 2.3240420818328857 -0.5015948414802551 0.7260110378265381 -0.10748142004013062 0.6112699508666992 -1.7694091796875 0.5353213548660278 -0.06397978961467743 0.17548584938049316 -0.3089022934436798 0.37489941716194153 -3.772871255874634 0.6532936692237854 -0.4425429403781891 0.6536969542503357 -0.0672203004360199 -0.2751353085041046 -1.9974842071533203 -0.0072515434585511684 -0.8275095224380493 -0.33550435304641724 0.6319823265075684 0.012197189964354038 -5.853217601776123 -12.230500221252441 -5.288660049438477 -0.34681370854377747 18.286962509155273 0.39911213517189026 -2.617885112762451 -4.3462371826171875 -5.430712699890137 -0.6356274485588074 -0.08136384934186935 -0.19982221722602844 7.5577216148376465 -11.254334449768066 5.571204662322998 -0.28300541639328003 18.250415802001953 -0.9613459706306458 3.2663216590881348 -5.762557506561279 4.904275894165039
-0.40249323938041925 48.36290180683136 1.8889375030994415 -2.3347935676574707 2.0211949348449707 3.3003616333007812 -2.9714040756225586 11.48162841796875 2.020188093185425 2.773782253265381 -7.5535383224487305 0.7933567762374878 -5.810484409332275 12.844391822814941 -4.727466106414795 8.467411041259766 -17.69755744934082 -6.3257036209106445 -0.04422822222113609 -0.27829182147979736 0.04852597787976265 0.02973514422774315 -0.06971003115177155 -0.5404883027076721 -0.000886877125594765 0.26993703842163086 0.11120220273733139 32.16035461425781 21.748910903930664 15.791019439697266 -22.086227416992188 -15.216723442077637 37.17300033569336 -0.03914731368422508 -4.953209400177002 -1.2565350532531738 0.018840664997696877 -0.11662860959768295 -0.15356911718845367 0.19544737040996552 0.4928418695926666 -0.3457445800304413 0.2949094772338867 -0.1356174498796463 -0.4381560981273651 7.143768310546875 5.050053596496582 0.44568243622779846 0.10779847204685211 -0.40574610233306885 0.1977662742137909 2.664515256881714 1.4697754383087158 0.13043037056922913 -0.010507704690098763 0.23621079325675964 0.5955688953399658 8.774626731872559 0.6680453419685364 0.29718589782714844 0.03915688022971153 0.3775458335876465 -0.025043470785021782 2.1148903369903564 -0.7152416706085205 -0.11080718785524368 0.11254430562257767 0.11623337864875793 0.3293250501155853 -37.07149887084961 26.658506393432617 -20.638826370239258 21.522991180419922 -15.33316421508789 -39.474205017089844 0.32836776971817017 -9.783629417419434 1.4276670217514038 0.08033611625432968 -0.009468311443924904 0.07784775644540787 0.31148019433021545 -0.09682706743478775 -0.12744279205799103 -0.041538018733263016 0.03525752201676369 0.1563040018081665 -6.745533466339111 4.667171955108643 -0.5702341198921204 0.0014064187416806817 0.09519609808921814 0.09707228094339371 -2.368191719055176 0.6399357318878174 0.05413661524653435 0.106831856071949 -0.4558979272842407 -0.13657961785793304 -8.33499813079834 0.9566450715065002 -0.33683302998542786 0.3764946460723877 0.023655585944652557 -0.10211054980754852 -2.3513600826263428 -0.469574898481369 -0.14519168436527252 -0.017274798825383186 0.06315223127603531 -0.06391969323158264 -16.448240280151367 -29.53171730041504 -12.946795463562012 -0.2515391409397125 44.21321105957031 1.3488703966140747 -2.8392555713653564 -7.078264236450195 -6.295741081237793 -0.4193717837333679 0.08209595829248428 0.24039839208126068 15.113476753234863 -22.307893753051758 10.662678718566895 0.8207455277442932 40.3573112487793 -1.9922764301300049 4.8094801902771 -9.984477996826172 12.363076210021973
-0.7511335657909513 68.21267604827881 1.2336725369095802 -0.6720840930938721 11.306025505065918 3.582158327102661 -7.585543632507324 16.689815521240234 2.086808681488037 4.282463550567627 -11.182684898376465 1.1035053730010986 -8.14450454711914 18.12480354309082 -7.572348594665527 11.594231605529785 -26.354137420654297 -11.624924659729004 -0.6390982866287231 -0.025646360591053963 0.08062008768320084 0.052111126482486725 0.032041776925325394 0.24728992581367493 0.22322958707809448 0.0504843033850193 0.23943392932415009 41.855167388916016 28.694528579711914 25.56599998474121 -27.95009994506836 -27.23292350769043 59.202213287353516 -0.7143259644508362 -2.9992592334747314 -1.1491962671279907 -0.3029039800167084 -0.23921525478363037 -0.2188616544008255 0.3114542067050934 0.09400001913309097 -0.8670837879180908 0.1053299531340599 -0.08668074011802673 0.1565892994403839 9.528907775878906 5.899706840515137 0.4381709694862366 -0.10118363052606583 0.2356560230255127 -0.026258330792188644 2.779109001159668 1.837243914604187 -0.43257009983062744 0.2302926480770111 0.3782446086406708 0.04062774032354355 11.557254791259766 0.7553883790969849 -0.38405221700668335 0.3077741265296936 -0.2830175459384918 0.30196020007133484 2.6987674236297607 -0.8593482375144958 -0.18052184581756592 0.3377254903316498 -0.10140543431043625 0.4545605480670929 -55.800254821777344 49.79153823852539 -21.469154357910156 28.289464950561523 -31.774383544921875 -67.13188171386719 1.4409517049789429 -26.759166717529297 4.930349349975586 -0.028167355805635452 -0.2045602798461914 -0.197615846991539 0.24639102816581726 -0.02059883624315262 0.12760242819786072 -0.25532713532447815 0.24638676643371582 -0.3449982702732086 -8.63805866241455 6.32703971862793 -0.3862060010433197 -0.34034836292266846 0.38679251074790955 0.09413959085941315 -3.112424850463867 0.8838016390800476 -0.03843742236495018 0.1765184849500656 -0.07143916934728622 0.18415647745132446 -11.775273323059082 0.9913970232009888 -0.2769317328929901 0.2922672927379608 0.2552332282066345 0.13270458579063416 -2.4017982482910156 -0.9962428212165833 0.6210728883743286 0.33604589104652405 -0.3922509253025055 -0.6677859425544739 -40.39281463623047 -52.07345199584961 -34.754364013671875 -3.894171953201294 76.05261993408203 5.319836616516113 -1.4624253511428833 -7.76608419418335 -2.6271839141845703 -0.3607526421546936 0.2386983186006546 0.39416417479515076 20.0540714263916 -27.992822647094727 14.81409740447998 2.4887008666992188 60.66929626464844 -3.6634597778320312 7.9309515953063965 -15.557865142822266 22.25989532470703
